<svg xmlns="http://www.w3.org/2000/svg"><symbol viewBox="0 0 20.413334 19.000986" id="svgexport-1"><path d="M13.707 5.293a1 1 0 10-1.414 1.414L16.586 11H5a1 1 0 100 2h11.586l-4.293 4.293a1 1 0 001.414 1.414L20.414 12l-6.707-6.707z" fill-rule="evenodd" clip-rule="evenodd" fill="#212121"/></symbol><symbol viewBox="0 0 62.710667 62.710667" id="svgexport-5"><g data-name="Layer 11" fill="#212121"><path d="M15 23h6v2h-6zm0-4h6v2h-6zm0 8h6v2h-6zm0 4h6v2h-6z"/><path d="M48.94 44.36l12.35 12.35 1.42-1.42L50.12 42.7A13 13 0 1027 31h-2V9h1a1 1 0 001-1V2a1 1 0 00-1-1H10a1 1 0 00-1 1v6a1 1 0 001 1h1v22H6a1 1 0 00-1 1v19H2a1 1 0 00-1 1v4a1 1 0 001 1h32a1 1 0 001-1v-4a1 1 0 00-1-1h-3v-4.77a12.91 12.91 0 0014.7.89l15.59 15.59 1.42-1.42-15.35-15.35a13.1 13.1 0 001.58-1.58zM13 37h10v5a5 5 0 01-10 0zm10-2H13V17h10zM11 3h14v4H11zm12 6v6H13V9zm10 46H3v-2h30zM7 51V33h4v9a7 7 0 0014 0v-9h1.36A12.91 12.91 0 0029 44.3V51zm21-15a11 11 0 1111 11 11 11 0 01-11-11z"/><path d="M39 27a9 9 0 109 9 9 9 0 00-9-9zm0 16a7 7 0 117-7 7 7 0 01-7 7z"/><path d="M39.91 30.58a1 1 0 00-1.82 0l-2.73 5.91A3.88 3.88 0 0038.44 42a3.94 3.94 0 001.12 0 3.88 3.88 0 003.08-5.47zm.85 8.42a1.91 1.91 0 01-1.44 1 2.29 2.29 0 01-.64 0 1.91 1.91 0 01-1.44-1 1.84 1.84 0 01-.07-1.69L39 33.38l1.83 3.95a1.84 1.84 0 01-.07 1.67z"/></g></symbol><symbol viewBox="0 0 96 92" id="svgexport-6"><switch fill="#212121"><g><path d="M64.671 53.256C69.188 48.893 72 42.775 72 36V24C72 10.745 61.255 0 48 0S24 10.745 24 24v12c0 6.773 2.812 12.889 7.326 17.253C13.037 56.102 0 63.488 0 72.094V80c0 6.63 5.37 12 12 12h72c6.63 0 12-5.37 12-12v-7.875c0-8.605-13.038-16.014-31.329-18.869zM32 36V24c0-8.836 7.164-16 16-16 8.837 0 16 7.164 16 16v12c0 8.836-7.163 16-16 16-8.836 0-16-7.164-16-16zm56 44c0 2.206-1.794 4-4 4H12c-2.206 0-4-1.794-4-4v-7.906c0-.932 2.305-3.941 9.152-6.812C25.156 61.925 36.4 60 48 60c11.594 0 22.835 1.93 30.842 5.294C85.693 68.174 88 71.189 88 72.125V80z"/></g></switch></symbol><symbol viewBox="0 0 20 21.994719" id="svgexport-7"><path d="M19.63 3.65a1 1 0 00-.84-.2 8 8 0 01-6.22-1.27 1 1 0 00-1.14 0 8 8 0 01-6.22 1.27 1 1 0 00-.84.2 1 1 0 00-.37.78v7.45a9 9 0 003.77 7.33l3.65 2.6a1 1 0 001.16 0l3.65-2.6A9 9 0 0020 11.88V4.43a1 1 0 00-.37-.78zM18 11.88a7 7 0 01-2.93 5.7L12 19.77l-3.07-2.19A7 7 0 016 11.88v-6.3a10 10 0 006-1.39 10 10 0 006 1.39zm-4.46-2.29l-2.69 2.7-.89-.9a1 1 0 00-1.42 1.42l1.6 1.6a1 1 0 001.42 0L15 11a1 1 0 00-1.42-1.42z" fill="#212121"/></symbol><symbol viewBox="0 0 26 30.000519" id="svgexport-8"><g data-name="Layer 2" fill="#212121"><path d="M23 2H9a3 3 0 00-3 3v19a3 3 0 003 3h5v2a1 1 0 001.316.949l2.684-.9 2.684.9A1.01 1.01 0 0021 30a1 1 0 001-1v-2h1a3 3 0 003-3V5a3 3 0 00-3-3zm-3 25.613l-1.367-.456a2.015 2.015 0 00-1.266 0L16 27.613v-4.169a3.875 3.875 0 004 0zM16 20a2 2 0 112 2 2 2 0 01-2-2zm8 4a1 1 0 01-1 1h-1v-5a4 4 0 00-8 0v5H9a1 1 0 01-1-1V5a1 1 0 011-1h14a1 1 0 011 1z"/><path d="M21 7H11a1 1 0 000 2h10a1 1 0 000-2zm0 4H11a1 1 0 000 2h10a1 1 0 000-2z"/></g></symbol><symbol viewBox="0 0 22.003443 22.000998" id="svgexport-9"><path d="M21 4.41l.71-.7a1 1 0 10-1.42-1.42l-1.4 1.41-2.83 2.83-6.31 6.3a5 5 0 101.42 1.42l5.59-5.6 2.12 2.13a1 1 0 101.41-1.42l-2.12-2.12 1.42-1.41.7.7a1 1 0 101.42-1.41zM7 20a3 3 0 113-3 3 3 0 01-3 3z" fill="#212121"/></symbol><symbol viewBox="0 0 63.576015 64" id="svgexport-10"><path d="M2.602.968C1.349.968 0 1.916 0 4v56c0 2.206 1.794 4 4 4h56c1.95 0 2.639-1.154 2.845-1.65.205-.496.534-1.799-.845-3.178L4.828 2C3.975 1.146 3.146.968 2.602.968zM4 60v-4h4a2 2 0 000-4H4v-4h2a2 2 0 000-4H4v-4h4a2 2 0 000-4H4v-4h2a2 2 0 000-4H4v-4h4a2 2 0 000-4H4V7l53.169 53H4z" fill="#212121"/><path d="M16 56h24c1.95 0 2.639-1.154 2.845-1.65.205-.496.534-1.799-.845-3.178L16.828 26c-.854-.854-1.682-1.032-2.227-1.032-1.252 0-2.601.948-2.601 3.032v24c0 2.206 1.794 4 4 4zm.001-25.17L37.17 52H16l.001-21.17zm39.455 15.596l4.119 1.029c.316.079.632.119.938.119h.001c.975 0 1.857-.414 2.422-1.137.604-.772.788-1.789.52-2.862l-1.029-4.119c-.353-1.412-1.396-3.254-2.426-4.284L26.828 2C26.074 1.246 25.07.831 24 .831S21.926 1.246 21.172 2L18 5.172a4.003 4.003 0 000 5.656L51.172 44c1.03 1.03 2.872 2.073 4.284 2.426zm3.089-6.001l.706 2.826-2.826-.706c-.721-.18-1.898-.848-2.425-1.373L26.828 14 30 10.828 57.172 38c.525.526 1.193 1.704 1.373 2.425zM24 4.828L27.172 8 24 11.172 20.828 8 24 4.828z" fill="#212121"/></symbol><symbol viewBox="0 0 19 19" id="svgexport-11"><path d="M16 19H8c-1.654 0-3-1.346-3-3V8c0-1.654 1.346-3 3-3h5a1 1 0 110 2H8c-.552 0-1 .449-1 1v8c0 .551.448 1 1 1h8c.552 0 1-.449 1-1v-3a1 1 0 112 0v3c0 1.654-1.346 3-3 3zm-2.834-4.167c-.35 0-.689-.139-.941-.391l-2.668-2.667a1.334 1.334 0 011.887-1.885l1.416 1.417 3.475-5.455a1.334 1.334 0 112.332 1.294l-4.334 7a1.332 1.332 0 01-.98.673l-.187.014z" fill="#212121"/></symbol><symbol viewBox="0 0 48 48" id="svgexport-12"><path d="M18 35H6a1 1 0 01-1-1V18a1 1 0 011-1h12a1 1 0 011 1v16a1 1 0 01-1 1zM7 33h10V19H7v14z" fill="#212121"/><path d="M12 47H8a1 1 0 01-1-1V34a1 1 0 011-1h4a1 1 0 011 1v12a1 1 0 01-1 1zm-3-2h2V35H9v10zM6 31H2a1 1 0 01-1-1V18a1 1 0 011-1h4a1 1 0 011 1v12a1 1 0 01-1 1zm-3-2h2V19H3v10zm19 2h-4a1 1 0 01-1-1V18a1 1 0 011-1h4a1 1 0 011 1v12a1 1 0 01-1 1zm-3-2h2V19h-2v10z" fill="#212121"/><path d="M16 47h-4a1 1 0 01-1-1V34a1 1 0 011-1h4a1 1 0 011 1v12a1 1 0 01-1 1zm-3-2h2V35h-2v10zm-1-30c-3.86 0-7-3.141-7-7s3.14-7 7-7 7 3.141 7 7-3.14 7-7 7zm0-12C9.243 3 7 5.243 7 8s2.243 5 5 5 5-2.243 5-5-2.243-5-5-5z" fill="#212121"/><path d="M20 9H4a1 1 0 110-2h16a1 1 0 110 2zm-8-4a1 1 0 01-1-1V2a1 1 0 112 0v2a1 1 0 01-1 1zm2 30h-4a1 1 0 01-1-1V18a1 1 0 011-1h4a1 1 0 011 1v16a1 1 0 01-1 1zm-3-2h2V19h-2v14z" fill="#212121"/><path d="M14 30h-4a1 1 0 01-1-1v-6a1 1 0 011-1h4a1 1 0 011 1v6a1 1 0 01-1 1zm-3-2h2v-4h-2v4zm35 19H26a1 1 0 01-1-1V7a1 1 0 011-1h20a1 1 0 011 1v39a1 1 0 01-1 1zm-19-2h18V8H27v37z" fill="#212121"/><path d="M39 47h-6a1 1 0 01-1-1V35a1 1 0 011-1h6a1 1 0 011 1v11a1 1 0 01-1 1zm-5-2h4v-9h-4v9zm0-29h-4a1 1 0 01-1-1v-4a1 1 0 011-1h4a1 1 0 011 1v4a1 1 0 01-1 1zm-3-2h2v-2h-2v2zm11 2h-4a1 1 0 01-1-1v-4a1 1 0 011-1h4a1 1 0 011 1v4a1 1 0 01-1 1zm-3-2h2v-2h-2v2zm-5 10h-4a1 1 0 01-1-1v-4a1 1 0 011-1h4a1 1 0 011 1v4a1 1 0 01-1 1zm-3-2h2v-2h-2v2zm11 2h-4a1 1 0 01-1-1v-4a1 1 0 011-1h4a1 1 0 011 1v4a1 1 0 01-1 1zm-3-2h2v-2h-2v2zm-5 10h-4a1 1 0 01-1-1v-4a1 1 0 011-1h4a1 1 0 011 1v4a1 1 0 01-1 1zm-3-2h2v-2h-2v2zm11 2h-4a1 1 0 01-1-1v-4a1 1 0 011-1h4a1 1 0 011 1v4a1 1 0 01-1 1zm-3-2h2v-2h-2v2z" fill="#212121"/><path fill="none" d="M0 0h48v48H0z"/></symbol><symbol viewBox="0 0 447.15866 412.79865" id="svgexport-13"><path d="M312.849 251.506c-2.82-.324-5.239-1.668-7.708-2.99-40.598-21.745-65.12-64.164-72.485-108.726-.908-5.493-3.75-25.428-.702-29.31 3.264-4.156 8.528-1.12 12.655-.463 23.6 3.754 50.299-11.024 62.773-30.775 1.676-2.652 2.668-5.375 5.945-6.182 6.819-.2 6.463 3.575 10.01 8.412 13.815 18.842 37.189 32.234 61.121 28.19 10.12-1.71 11.444-1.42 11.274 8.487-.86 50.079-26.588 103.644-71.242 128.293-3.767 2.08-7.376 4.22-11.641 5.064zm1.782-162.568c-14.253 17.624-31.03 29.722-54.454 32.098l-18.335.184c2.819 45.018 24.177 90.609 63.71 114.48 2.182 1.317 4.492 2.785 6.823 3.813 1.234.389 2.426-.55 3.555-1.138 30.354-15.826 51.705-45.702 61.67-78.02 3.915-12.701 5.795-26.16 7.156-39.35-26.58 1.975-47.989-6.374-65.958-27.02l-4.167-5.047z" fill="#212121"/><path d="M276.971 172.711c-1.874-3.52-4.71-6.93-4.897-11.08-.279-6.164 6.756-7.991 9.308-4.833 1.045 1.293 1.72 3.028 2.445 4.523l3.339 6.305c3.283 5.628 7.423 10.383 11.628 15.306 8.57-15.274 32.307-35.106 46.517-44.085 2.633-1.664 5.335-3.753 8.267-4.819l2.082-.068c3.788.228 6.09 3.65 5.5 7.267-.382 2.352-3.994 3.787-5.895 4.886-15.995 9.243-37.003 26.524-47.033 42.443-2.493 3.955-3.52 10.125-9.664 8.724-6.348-1.447-18.397-19.403-21.597-24.569zm-26.53 215.29c-12.927-4.552-25.043-10.758-37.393-16.637-13.14-6.255-27.963-15.87-43.016-15.894 1.405 3.836 4.038 7.444 4.611 11.548 1.04 7.44-4.777 15.798-11.015 19.133-5.069 2.71-11.031 4.283-16.46 6.15l-51.162 16.957c-13.2 4.517-14.5 7.292-19.007-8.272l-4.583-15.852c-5.887-20.7-12.244-41.395-16.011-62.615-2.817-15.864-4.43-30.127 13.138-38.951 8.359-4.198 17.94-6.55 26.707-9.814l12.536-5.016c15.024-6.188 28.133-7.698 36.414 8.952 15.902-6.088 40.388-13.706 56.458-14.59 20.34-1.93 33.39 3.137 51.02 10.618 14.633 6.208 30.198 10.281 45.836 12.984l12.463 1.85c15.665 2.658 33.715-5.471 42.433 14.29l7.448-2.085c11.017-2.267 22.16-1.095 31.656 5.193l11.997-6.776c11.828-6.425 31.787-18.228 40.872-.644 5.06 9.792-1.686 19.474-7.873 26.852-28.681 34.204-90.172 56.732-132.76 64.317-20.75 3.696-34.354 4.829-54.308-1.698zm-50.588-113.746c-17.455 1.57-34.021 8.904-50.873 13.313l16.832 57.24c10.242-2.46 19.938 1.587 29.303 5.518 46.514 19.525 57.342 38.341 113.075 27.57 37.85-7.314 102.148-31.35 124.48-64.024 1.824-2.754 3.099-5.054 3.695-8.354-4.858-11.105-18.99-.639-25.843 3.023l-19.944 11.493c-7.421 4.05-15.285 7.408-23.1 10.616-10.405 4.273-16.058 6.007-27.642 2.488-13.667-4.153-20.518-2.422-34.336-.621-6.675.87-33.45 2.495-37.454-4.892-1.346-2.485-.918-6.013 1.83-7.345 2.112-1.026 6.287-.077 8.47.554 12.618 3.648 37.716-3.305 52.453-3.49 13.806-.173 17.26-14.495 4.1-17.127-2.273-.455-4.781-.296-7.097-.301l-13.316-.066c-2.884-.114-5.776-.606-8.636-.98l-17.727-2.881c-12.059-2.357-23.903-5.622-35.371-10.063-22.85-8.85-27.102-12.483-52.9-11.67zm-74.493 1.09c-7.536.717-14.522 5.177-21.557 7.696l-18.99 6.564c-10.684 3.76-20.47 6.811-19.073 20.137 1.008 9.632 3.12 19.13 5.382 28.534l17.015 61.94 11.357-3.947 48.31-16.007c17.506-5.696 15.91-7.177 10.915-22.012l-17.401-57.688c-2.664-8.465-4.974-24.559-15.958-25.216zm245.152 35.515c-4.922-.102-10.97.811-15.646 2.41l-3.833 5.199c-1.438 1.793-2.839 3.832-4.643 5.24 3.042.118 6.252.42 9.24-.286 4.542-1.3 20.953-8.647 24.724-11.46-2.923-1.185-6.707-1.333-9.842-1.103z" fill="#212121"/><path d="M134.826 374.986c-23.21.464-25.647-32.51-1.933-34.382 20.717-1.22 26.302 30.173 1.933 34.382zm-3.052-22.932c-7.684 3.038-4.944 12.305 3.452 11.404 7.687-3.264 5.232-11.984-3.452-11.404z" fill="#212121"/></symbol><symbol viewBox="0 0 48 48" id="svgexport-14"><path d="M26 48h-4c-1.654 0-3-1.346-3-3v-3.724a17.852 17.852 0 01-3.681-1.527l-2.634 2.635c-1.134 1.134-3.109 1.132-4.243 0l-2.829-2.828c-.567-.566-.879-1.32-.879-2.121s.312-1.555.879-2.121l2.635-2.636a17.738 17.738 0 01-1.525-3.679H3c-1.654 0-3-1.346-3-3v-4c0-.802.312-1.555.878-2.121A2.984 2.984 0 013 18.999h3.724c.37-1.278.88-2.511 1.526-3.679l-2.634-2.635a3.002 3.002 0 010-4.242l2.828-2.829c1.133-1.132 3.109-1.134 4.243 0l2.635 2.635A17.843 17.843 0 0119 6.724V3c0-1.654 1.346-3 3-3h4c1.654 0 3 1.346 3 3v3.724c1.28.37 2.512.881 3.678 1.525l2.635-2.635c1.134-1.132 3.109-1.134 4.243 0l2.829 2.828c.567.566.879 1.32.879 2.121s-.312 1.555-.879 2.121l-2.634 2.635a17.763 17.763 0 011.526 3.68H45c1.654 0 3 1.346 3 3v4c0 .802-.312 1.555-.878 2.121s-1.32.879-2.122.879h-3.724a17.85 17.85 0 01-1.526 3.68l2.634 2.635a3.002 3.002 0 010 4.242l-2.828 2.829c-1.134 1.133-3.109 1.133-4.243 0L32.68 39.75a17.855 17.855 0 01-3.679 1.526V45A3.005 3.005 0 0126 48zM15.157 37.498c.179 0 .36.048.521.146a15.877 15.877 0 004.557 1.891 1 1 0 01.765.972V45c0 .552.449 1 1 1h4c.551 0 1-.448 1-1v-4.493a1 1 0 01.765-.972 15.876 15.876 0 004.556-1.89c.396-.241.902-.18 1.229.146l3.178 3.179c.375.374 1.039.376 1.415 0l2.828-2.829a1 1 0 000-1.414l-3.179-3.179a1 1 0 01-.146-1.229 15.86 15.86 0 001.889-4.556 1 1 0 01.972-.766H45a.996.996 0 001-.998v-4c0-.552-.449-1-1-1h-4.493a.999.999 0 01-.972-.766 15.85 15.85 0 00-1.889-4.556 1 1 0 01.146-1.229l3.179-3.179c.186-.187.293-.444.293-.707s-.107-.521-.293-.707l-2.829-2.828a1.027 1.027 0 00-1.415 0l-3.179 3.179a.995.995 0 01-1.229.146 15.864 15.864 0 00-4.554-1.889.997.997 0 01-.765-.97V3c0-.552-.449-1-1-1h-4c-.551 0-1 .448-1 1v4.493a1 1 0 01-.765.972 15.873 15.873 0 00-4.556 1.889.998.998 0 01-1.228-.146l-3.179-3.179a1.027 1.027 0 00-1.415 0L7.03 9.857a1 1 0 000 1.414l3.179 3.179a1 1 0 01.146 1.229 15.856 15.856 0 00-1.889 4.555 1 1 0 01-.972.766H3a.996.996 0 00-1 .999v4c0 .552.449 1 1 1h4.493c.462 0 .864.316.972.766a15.866 15.866 0 001.889 4.555 1 1 0 01-.146 1.229l-3.179 3.18c-.186.187-.293.444-.293.707s.107.521.293.707l2.829 2.828a1.027 1.027 0 001.415 0l3.178-3.179a.99.99 0 01.706-.294z" fill="#212121"/><path d="M24 34c-5.514 0-10-4.486-10-10s4.486-10 10-10 10 4.486 10 10-4.485 10-10 10zm0-18c-4.411 0-8 3.589-8 8s3.589 8 8 8 8-3.589 8-8-3.588-8-8-8z" fill="#212121"/></symbol></svg>